<svg width="176" height="32" viewBox="0 0 176 32" xmlns="http://www.w3.org/2000/svg">
    <g fill="none" fill-rule="evenodd">
        <path d="M13.754 18.584h2.877V8.578h-2.877v10.006zm-9.29.967c0 5.463 4.812 9.907 10.728 9.907 5.915 0 10.728-4.444 10.728-9.907 0-4.21-2.858-7.811-6.876-9.244v2.93c2.385 1.247 4 3.608 4 6.314 0 3.997-3.523 7.25-7.852 7.25-4.329 0-7.85-3.253-7.85-7.25 0-2.727 1.639-5.105 4.054-6.342v-2.922c-4.048 1.42-6.931 5.036-6.931 9.264zm41.023-5.947h2.974v-2.625h-2.974v2.625zM40.74 29.319h2.974v-18.34H40.74v18.34zm28.462-13.82c-.866 0-1.69.15-2.475.452a5.917 5.917 0 0 0-2.08 1.355c-.603.603-1.086 1.354-1.45 2.252-.364.897-.558 1.944-.583 3.137v.174c0 1.171.162 2.196.49 3.077.326.882.782 1.614 1.374 2.2a5.636 5.636 0 0 0 2.098 1.312c.81.29 1.698.434 2.664.434 1.682 0 3.037-.28 4.066-.843 1.03-.562 1.883-1.492 2.56-2.79h-3.238a7.947 7.947 0 0 1-.677.652c-.189.156-.39.272-.601.347a2.698 2.698 0 0 1-.716.14c-.264.017-.572.026-.923.026a4.893 4.893 0 0 1-1.488-.226 3.996 3.996 0 0 1-1.28-.67 3.234 3.234 0 0 1-.903-1.121c-.227-.452-.339-.985-.339-1.599v-.035l10.165.018c-.163-1.635-.31-2.759-.442-3.373a9.32 9.32 0 0 0-.584-1.799 5.377 5.377 0 0 0-1.063-1.582c-.451-.47-1.03-.843-1.733-1.121-.701-.278-1.555-.418-2.559-.418h-.283zm-2.917 4.284c.212-.421.47-.772.772-1.05a3.087 3.087 0 0 1 2.108-.835h.226c1.066 0 1.848.284 2.343.852.496.567.794 1.408.894 2.52h-6.777c.076-.567.22-1.063.434-1.487zm-9.67-4.25c-1.506 0-2.786.487-3.84 1.46l-.093-1.095h-2.805v13.42h2.974v-7.092c0-1.367.295-2.401.884-3.103.59-.701 1.438-1.05 2.541-1.05.691 0 1.255.17 1.695.51.439.343.66.85.66 1.522v9.214h2.974V19.027a5.617 5.617 0 0 0-.462-1.355 3.33 3.33 0 0 0-.866-1.087c-.37-.307-.837-.553-1.403-.739-.564-.185-1.248-.29-2.051-.312h-.208zm-22.41 0c-1.506 0-2.787.487-3.84 1.46l-.095-1.095h-2.805v13.42h2.974v-7.092c0-1.367.295-2.401.886-3.103.59-.701 1.436-1.05 2.541-1.05.689 0 1.254.17 1.694.51.44.343.659.85.659 1.522v5.687l2.974 2.153v-8.918a5.615 5.615 0 0 0-.46-1.355 3.322 3.322 0 0 0-.867-1.087c-.371-.307-.837-.553-1.403-.739-.564-.185-1.248-.29-2.052-.312h-.206zM45.487 29.32h2.974v-13.42h-2.974v13.42z" fill="#307AFF"/>
        <path fill="#D31243" d="m39.453 29.49-5.205-3.741-.002 4.911 1.535-.637L36.968 32l1.83-.41-1.188-1.975z"/>
        <g fill="#D31243">
            <path d="M170.414 25.506c0 3.343-2.775 5.497-7.294 5.497h-11.643V16.036h4.433V27.92h6.31c2.26 0 3.766-.711 3.766-2.258v-9.626h4.428v9.47z"/>
            <path d="M158.768 26.83V16.07h4.293v8.525c0 1.143-1.68 2.235-4.23 2.235h-.063z"/>
        </g>
        <path d="M149.39 16.07h.062v14.933h-4.446v-12.7c0-1.144 1.832-2.234 4.383-2.234M143.21 21.538v4.039c0 3.084-2.174 5.438-5.765 5.438h-8.69V27.91h6.511c1.716-.044 2.671-.48 3.138-1.216.224-.354.314-.746.354-1.122.035-.363.025-4.19.025-4.19 0-1.459-.579-2.26-2.91-2.26H133.2v2.495c0 1.145-1.832 2.236-4.384 2.236h-.061V16.04l7.972.003c4.458 0 6.484 2.104 6.484 5.496M126.984 21.536l.003 9.479h-4.443l.012-9.634c0-1.459-.578-2.262-2.91-2.262h-5.396c.294-1.347.83-2.375 1.608-3.08h4.643c4.459 0 6.483 2.104 6.483 5.497M109.063 21.357c0-1.458-.577-2.26-2.91-2.26h-3.45v6.54c0 .78.094 1.526 1.133 1.946 1.202.485 3.022.373 4.083-.024 1.035-.388 1.133-1.14 1.133-1.945l.01-4.257zm4.429.157.003 4.431c-.054 2.464-1.74 3.951-3.675 4.696a6.029 6.029 0 0 1-.556.187c-1.624.485-4.599.485-6.754-.076a4.283 4.283 0 0 1-.532-.188c-2.12-.727-3.656-2.12-3.71-4.619l.024-9.93h8.715c4.459 0 6.485 2.105 6.485 5.499zM96.688 20.58c.044.499 0 3.793 0 3.793 0 2.52-3.883 6.628-9.497 6.628h-.711V28.09h.133c3.151 0 5.693-2.445 5.693-4.099v-2.932c-.082-1.268-.733-1.963-2.9-1.963H82.77v-4.393c0-1.143 1.833-2.235 4.383-2.235h.063v3.547h3.045c.573 0 1.107.035 1.6.104 2.006.236 3.366 1.077 4.132 2.358.366.608.628 1.313.696 2.104M176 4.114s-5.032-.015-5.893-.003c-34.235.421-56.586 2.119-64.527 7.864-8.066-7.43-22.108-7.843-33.658-7.864C71.75 4.108 0 4.114 0 4.114V.004h71.922c11.541.024 25.6.44 33.658 7.865C113.52 2.124 135.868.427 170.107.004c.86-.01 5.893.002 5.893.002v4.108z" fill="#D31243"/>
    </g>
</svg>
